<?xml version="1.0" standalone="no"?>
<!DOCTYPE svg PUBLIC "-//W3C//DTD SVG 20010904//EN"
 "http://www.w3.org/TR/2001/REC-SVG-20010904/DTD/svg10.dtd">
<svg version="1.0" xmlns="http://www.w3.org/2000/svg"
 width="500.000000pt" height="500.000000pt" viewBox="0 0 500.000000 500.000000"
 preserveAspectRatio="xMidYMid meet">

<g transform="translate(0.000000,500.000000) scale(0.100000,-0.100000)"
fill="#000000" stroke="none">
<path d="M0 2500 l0 -2500 2500 0 2500 0 0 2500 0 2500 -2500 0 -2500 0 0
-2500z m2686 1989 c296 -29 608 -137 849 -296 411 -272 691 -660 809 -1126 49
-191 59 -291 53 -534 -4 -173 -9 -228 -30 -325 -175 -801 -797 -1383 -1604
-1503 -133 -20 -393 -20 -526 0 -728 108 -1320 603 -1546 1291 -65 199 -83
310 -89 543 -5 238 5 340 54 528 85 334 253 631 495 872 407 405 966 606 1535
550z"/>
<path d="M1770 3270 l0 -120 254 0 255 0 4 -507 c3 -435 6 -517 20 -571 48
-181 144 -285 301 -329 28 -7 102 -16 164 -20 l112 -6 0 120 0 120 -75 5
c-148 10 -214 76 -235 238 -5 41 -10 272 -10 513 l0 437 250 0 250 0 0 120 0
120 -645 0 -645 0 0 -120z"/>
</g>
</svg>
